<svg xmlns="http://www.w3.org/2000/svg" xmlns:xlink="http://www.w3.org/1999/xlink" width="500" zoomAndPan="magnify" viewBox="0 0 375 374.999991" height="500" preserveAspectRatio="xMidYMid meet" version="1.0"><defs><g/><clipPath id="d12ca65d27"><path d="M 45.050781 137.894531 L 158.300781 137.894531 L 158.300781 218 L 45.050781 218 Z M 45.050781 137.894531 " clip-rule="nonzero"/></clipPath><clipPath id="f110a59f85"><path d="M 67 218 L 85 218 L 85 235.394531 L 67 235.394531 Z M 67 218 " clip-rule="nonzero"/></clipPath><clipPath id="98a68a9296"><path d="M 131 218 L 149 218 L 149 235.394531 L 131 235.394531 Z M 131 218 " clip-rule="nonzero"/></clipPath></defs><g clip-path="url(#d12ca65d27)"><path fill="#000000" d="M 158.199219 153.421875 C 157.90625 152.039062 156.660156 150.910156 155.222656 150.894531 C 127.058594 150.882812 98.894531 150.890625 70.730469 150.894531 C 70.160156 150.894531 70.238281 150.894531 70.082031 150.425781 C 69.605469 148.800781 69.101562 147.183594 68.625 145.554688 C 67.421875 141.273438 63.484375 137.980469 58.972656 137.933594 C 57.621094 137.890625 56.273438 137.894531 54.925781 137.894531 C 52.914062 137.894531 50.902344 137.902344 48.886719 137.894531 C 48.265625 137.894531 47.679688 138.019531 47.117188 138.285156 C 43.976562 139.777344 44.613281 144.40625 48.089844 145.03125 C 51.863281 145.242188 55.660156 145.03125 59.445312 145.101562 C 60.910156 145.121094 62.003906 146.082031 62.296875 147.484375 C 63.222656 150.554688 64.144531 153.625 65.0625 156.695312 C 67.757812 165.65625 70.402344 174.628906 73.089844 183.59375 C 74.1875 187.1875 75.242188 190.792969 76.351562 194.382812 C 76.746094 195.648438 77.363281 196.789062 78.207031 197.808594 C 78.464844 198.125 78.71875 198.4375 78.976562 198.75 C 79.011719 198.792969 79.007812 198.867188 78.964844 198.898438 C 74.253906 202.203125 70.691406 207.085938 68.808594 212.503906 C 68.390625 213.601562 68.292969 214.59375 68.9375 215.632812 C 69.566406 216.648438 70.464844 217.207031 71.675781 217.234375 C 84.992188 217.253906 98.304688 217.242188 111.621094 217.242188 C 124.679688 217.246094 137.734375 217.242188 150.796875 217.238281 C 151.761719 217.277344 152.746094 217.183594 153.511719 216.523438 C 155.921875 214.550781 154.152344 210.976562 151.40625 210.953125 C 137.058594 210.902344 122.707031 210.949219 108.359375 210.933594 C 97.941406 210.921875 87.527344 210.945312 77.109375 210.945312 C 76.898438 210.914062 77.03125 210.683594 77.105469 210.550781 C 78.84375 206.960938 81.695312 203.90625 85.332031 202.199219 C 102.320312 202.207031 119.460938 202.238281 136.5 202.199219 C 139.660156 202.152344 142.769531 200.628906 144.722656 198.152344 C 146.53125 195.917969 146.898438 192.984375 147.757812 190.324219 C 149.492188 184.308594 151.285156 178.308594 153.019531 172.289062 C 154.316406 167.679688 155.699219 163.097656 157.03125 158.496094 C 157.3125 157.539062 157.59375 156.585938 157.871094 155.632812 C 158.070312 154.910156 158.398438 154.179688 158.199219 153.421875 Z M 121.011719 170.652344 C 121.207031 166.640625 121.425781 162.628906 121.613281 158.617188 C 121.644531 158.082031 121.664062 158.101562 122.164062 158.101562 C 126.96875 158.132812 131.769531 158.082031 136.570312 158.113281 C 136.699219 158.117188 136.773438 158.183594 136.75 158.332031 C 136.378906 160.660156 135.945312 162.976562 135.519531 165.296875 C 135.191406 167.109375 134.84375 168.917969 134.539062 170.734375 C 134.507812 170.914062 134.429688 170.976562 134.234375 170.972656 C 132.074219 170.929688 129.910156 170.960938 127.75 170.953125 C 127.75 170.949219 127.75 170.941406 127.75 170.9375 C 125.554688 170.941406 123.355469 170.996094 121.160156 170.96875 C 121.023438 170.9375 121 170.769531 121.011719 170.652344 Z M 76.144531 170.820312 C 74.902344 166.777344 73.746094 162.703125 72.5625 158.640625 C 72.558594 158.503906 72.339844 158.144531 72.550781 158.101562 C 73.933594 158.089844 75.320312 158.101562 76.703125 158.097656 C 76.703125 158.097656 76.703125 158.101562 76.703125 158.101562 C 77.976562 158.101562 79.25 158.101562 80.523438 158.101562 C 81.050781 158.101562 81.035156 158.113281 81.113281 158.609375 C 81.359375 160.097656 81.585938 161.589844 81.824219 163.078125 C 82.230469 165.605469 82.636719 168.128906 83.023438 170.65625 C 83.054688 170.929688 82.96875 170.976562 82.71875 170.96875 C 80.597656 170.972656 78.476562 170.9375 76.355469 170.96875 C 76.261719 170.96875 76.179688 170.921875 76.144531 170.820312 Z M 80.039062 183.308594 C 79.917969 183.308594 79.828125 183.261719 79.78125 183.140625 C 79.699219 182.898438 79.601562 182.660156 79.527344 182.410156 C 78.8125 179.9375 78.054688 177.472656 77.363281 174.992188 C 77.34375 174.902344 77.414062 174.816406 77.515625 174.808594 C 78.511719 174.789062 79.507812 174.808594 80.503906 174.800781 C 81.5 174.8125 82.5 174.78125 83.492188 174.816406 C 83.785156 174.839844 83.710938 175.472656 83.785156 175.699219 C 84.160156 178.117188 84.53125 180.539062 84.894531 182.957031 C 84.898438 183.070312 84.941406 183.261719 84.796875 183.289062 C 83.214844 183.355469 81.621094 183.300781 80.039062 183.308594 Z M 86.675781 195.925781 C 82.195312 194.910156 82.265625 191.210938 81.09375 187.566406 C 81.078125 187.476562 81.007812 187.324219 81.121094 187.277344 C 81.832031 187.203125 82.558594 187.265625 83.273438 187.246094 C 83.972656 187.25 84.671875 187.234375 85.375 187.257812 C 85.46875 187.261719 85.550781 187.332031 85.570312 187.421875 C 85.847656 188.828125 86.066406 190.246094 86.273438 191.664062 C 86.460938 192.9375 86.710938 194.199219 86.890625 195.472656 C 86.910156 195.667969 86.992188 196.03125 86.675781 195.925781 Z M 86.816406 170.585938 C 86.222656 166.46875 85.515625 162.363281 84.964844 158.246094 C 85.027344 158.039062 85.28125 158.125 85.445312 158.105469 C 87.695312 158.109375 89.949219 158.113281 92.199219 158.109375 C 92.199219 158.109375 92.199219 158.105469 92.199219 158.101562 C 94.5625 158.113281 96.925781 158.074219 99.285156 158.117188 C 99.433594 158.132812 99.457031 158.300781 99.460938 158.421875 C 99.488281 158.878906 99.519531 159.339844 99.542969 159.800781 C 99.722656 163.367188 99.84375 166.9375 99.988281 170.507812 C 99.964844 170.644531 100.042969 170.902344 99.867188 170.949219 C 95.589844 170.988281 91.300781 170.976562 87.023438 170.933594 C 86.859375 170.914062 86.839844 170.71875 86.816406 170.585938 Z M 88.785156 183.121094 C 88.515625 181.671875 88.324219 180.210938 88.09375 178.753906 C 87.925781 177.664062 87.75 176.570312 87.59375 175.476562 C 87.488281 174.726562 87.371094 174.792969 88.167969 174.792969 C 90.050781 174.796875 91.9375 174.792969 93.820312 174.792969 C 93.820312 174.796875 93.820312 174.800781 93.820312 174.804688 C 95.871094 174.816406 97.921875 174.78125 99.972656 174.824219 C 100.144531 174.855469 100.136719 175.046875 100.144531 175.183594 C 100.167969 175.679688 100.191406 176.179688 100.210938 176.675781 C 100.304688 178.753906 100.410156 180.835938 100.464844 182.917969 C 100.472656 183.074219 100.460938 183.300781 100.257812 183.300781 C 96.621094 183.324219 92.980469 183.300781 89.34375 183.3125 C 89.148438 183.296875 88.820312 183.390625 88.785156 183.121094 Z M 100.9375 196.015625 C 97.621094 196.089844 94.292969 196.03125 90.976562 196.046875 C 90.6875 196.007812 90.753906 195.613281 90.683594 195.398438 C 90.390625 193.542969 90.097656 191.6875 89.804688 189.835938 C 89.6875 189.070312 89.574219 188.304688 89.460938 187.539062 C 89.441406 187.441406 89.449219 187.285156 89.570312 187.273438 C 91.398438 187.222656 93.226562 187.269531 95.054688 187.257812 C 95.054688 187.25 95.054688 187.246094 95.054688 187.238281 C 96.714844 187.238281 98.375 187.238281 100.035156 187.238281 C 100.726562 187.238281 100.660156 187.203125 100.691406 187.855469 C 100.714844 188.351562 100.734375 188.851562 100.761719 189.347656 C 100.835938 190.894531 100.933594 192.4375 100.980469 193.980469 C 100.941406 194.261719 101.207031 196.042969 100.9375 196.015625 Z M 116.121094 188.953125 C 116.03125 191.253906 115.878906 193.546875 115.804688 195.847656 C 115.800781 196.046875 115.574219 196.054688 115.417969 196.046875 C 112.296875 196.050781 109.179688 196.050781 106.0625 196.050781 C 105.785156 196.050781 105.507812 196.054688 105.230469 196.050781 C 104.839844 196.046875 104.835938 196.042969 104.820312 195.648438 C 104.785156 194.910156 104.757812 194.175781 104.726562 193.441406 C 104.644531 191.453125 104.535156 189.46875 104.511719 187.480469 C 104.507812 187.3125 104.574219 187.253906 104.746094 187.25 C 106.609375 187.242188 108.472656 187.25 110.335938 187.246094 C 110.335938 187.25 110.335938 187.257812 110.335938 187.261719 C 112.21875 187.257812 114.101562 187.222656 115.980469 187.242188 C 116.101562 187.246094 116.175781 187.332031 116.171875 187.464844 C 116.15625 187.960938 116.136719 188.457031 116.121094 188.953125 Z M 116.902344 175.070312 C 116.78125 177.332031 116.699219 179.59375 116.542969 181.855469 C 116.519531 182.203125 116.515625 182.554688 116.5 182.902344 C 116.507812 183.1875 116.441406 183.328125 116.140625 183.308594 C 112.246094 183.304688 108.351562 183.328125 104.457031 183.304688 C 104.367188 183.300781 104.292969 183.226562 104.285156 183.125 C 104.128906 180.699219 104.09375 178.265625 103.996094 175.835938 C 103.988281 175.542969 103.984375 175.25 103.984375 174.957031 C 103.984375 174.886719 104.058594 174.8125 104.125 174.808594 C 106.226562 174.78125 108.332031 174.808594 110.433594 174.796875 C 110.433594 174.796875 110.433594 174.800781 110.433594 174.800781 C 112.519531 174.808594 114.605469 174.789062 116.691406 174.808594 C 116.84375 174.816406 116.914062 174.910156 116.902344 175.070312 Z M 117.773438 158.570312 C 117.75 159.101562 117.746094 159.636719 117.730469 160.171875 C 117.582031 163.722656 117.410156 167.277344 117.15625 170.820312 C 117.085938 170.96875 116.917969 170.953125 116.777344 170.960938 C 113.007812 170.945312 109.242188 170.957031 105.476562 170.953125 C 105.050781 170.953125 104.625 170.949219 104.199219 170.949219 C 104.054688 170.9375 103.816406 170.972656 103.777344 170.785156 C 103.699219 169.425781 103.695312 168.058594 103.605469 166.699219 C 103.492188 163.882812 103.328125 161.066406 103.308594 158.25 C 103.3125 158.183594 103.390625 158.113281 103.457031 158.113281 C 105.820312 158.074219 108.1875 158.109375 110.546875 158.097656 C 112.800781 158.101562 115.054688 158.089844 117.304688 158.101562 C 117.765625 158.113281 117.789062 158.136719 117.773438 158.570312 Z M 131.4375 187.433594 C 130.957031 190.136719 130.484375 192.839844 130.007812 195.542969 C 129.960938 195.699219 129.964844 195.945312 129.792969 196.019531 C 126.5625 196.078125 123.328125 196.023438 120.097656 196.042969 C 119.574219 196.042969 119.566406 196.039062 119.585938 195.53125 C 119.660156 193.914062 119.75 192.292969 119.832031 190.675781 C 119.90625 189.574219 119.933594 188.464844 120.042969 187.367188 C 120.058594 187.324219 120.113281 187.273438 120.15625 187.269531 C 122.019531 187.214844 123.886719 187.265625 125.75 187.25 C 125.75 187.253906 125.75 187.257812 125.75 187.265625 C 127.613281 187.269531 129.480469 187.191406 131.34375 187.257812 C 131.402344 187.277344 131.453125 187.375 131.4375 187.433594 Z M 133.667969 175.195312 C 133.359375 177.070312 133.003906 178.929688 132.671875 180.796875 C 132.515625 181.589844 132.414062 182.398438 132.21875 183.183594 C 132.203125 183.226562 132.144531 183.277344 132.101562 183.28125 C 130.167969 183.339844 128.226562 183.285156 126.289062 183.304688 C 126.289062 183.308594 126.289062 183.3125 126.289062 183.316406 C 124.367188 183.3125 122.449219 183.320312 120.527344 183.3125 C 120.375 183.308594 120.304688 183.226562 120.304688 183.0625 C 120.359375 181.683594 120.441406 180.304688 120.507812 178.921875 C 120.574219 177.636719 120.636719 176.347656 120.703125 175.058594 C 120.714844 174.867188 120.777344 174.808594 120.984375 174.804688 C 125.1875 174.835938 129.40625 174.738281 133.605469 174.847656 C 133.71875 174.910156 133.671875 175.089844 133.667969 175.195312 Z M 141.855469 187.472656 C 141.378906 189.152344 140.902344 190.832031 140.429688 192.511719 C 139.785156 194.871094 137.445312 196.226562 135.066406 196.027344 C 135.066406 196.03125 135.066406 196.039062 135.066406 196.042969 C 134.835938 196.003906 133.976562 196.144531 133.90625 195.921875 C 134.207031 193.542969 134.71875 191.171875 135.101562 188.800781 C 135.183594 188.347656 135.265625 187.894531 135.347656 187.445312 C 135.371094 187.324219 135.457031 187.25 135.578125 187.242188 C 137.621094 187.242188 139.667969 187.1875 141.714844 187.238281 C 141.84375 187.246094 141.894531 187.332031 141.855469 187.472656 Z M 145.449219 175.160156 C 144.6875 177.792969 143.949219 180.433594 143.199219 183.066406 C 143.144531 183.257812 143.082031 183.304688 142.882812 183.308594 C 140.761719 183.316406 138.644531 183.316406 136.523438 183.316406 C 136.410156 183.300781 136.226562 183.347656 136.175781 183.214844 C 136.214844 182.5625 136.382812 181.910156 136.476562 181.257812 C 136.761719 179.609375 137.058594 177.960938 137.363281 176.316406 C 137.457031 176.035156 137.503906 174.863281 137.777344 174.820312 C 139.046875 174.761719 140.324219 174.8125 141.59375 174.796875 C 141.59375 174.796875 141.59375 174.800781 141.59375 174.800781 C 142.792969 174.804688 143.992188 174.796875 145.191406 174.804688 C 145.472656 174.808594 145.539062 174.855469 145.449219 175.160156 Z M 150.257812 158.421875 C 149.132812 162.539062 147.917969 166.632812 146.75 170.738281 C 146.707031 170.886719 146.621094 170.945312 146.46875 170.949219 C 143.808594 170.941406 141.152344 170.976562 138.496094 170.921875 C 138.457031 170.921875 138.402344 170.847656 138.410156 170.804688 C 138.886719 168.046875 139.390625 165.296875 139.914062 162.550781 C 140.167969 161.15625 140.421875 159.761719 140.671875 158.367188 C 140.710938 158.175781 140.78125 158.109375 140.964844 158.101562 C 142.476562 158.089844 143.988281 158.101562 145.5 158.097656 C 145.5 158.097656 145.5 158.09375 145.5 158.09375 C 147.015625 158.097656 148.527344 158.085938 150.039062 158.097656 C 150.269531 158.105469 150.316406 158.179688 150.257812 158.421875 Z M 150.257812 158.421875 " fill-opacity="1" fill-rule="nonzero"/></g><g clip-path="url(#f110a59f85)"><path fill="#000000" d="M 78.214844 219.28125 C 74.242188 218.066406 69.738281 220.238281 68.148438 224.058594 C 65.773438 229.21875 70.125 235.527344 75.734375 235.390625 C 85.441406 235.476562 87.527344 222.128906 78.214844 219.28125 Z M 76.597656 230.648438 C 71.429688 231.363281 70.738281 223.757812 76.089844 223.734375 C 80.238281 223.832031 80.664062 229.851562 76.597656 230.648438 Z M 76.597656 230.648438 " fill-opacity="1" fill-rule="nonzero"/></g><g clip-path="url(#98a68a9296)"><path fill="#000000" d="M 137.386719 219.4375 C 128.640625 222.796875 130.84375 235.300781 140.242188 235.386719 C 144.71875 235.488281 148.609375 231.625 148.574219 227.152344 C 148.667969 221.546875 142.589844 217.46875 137.386719 219.4375 Z M 141.230469 230.585938 C 136.019531 231.734375 134.855469 223.917969 140.316406 223.738281 C 144.378906 223.699219 145.101562 229.507812 141.230469 230.585938 Z M 141.230469 230.585938 " fill-opacity="1" fill-rule="nonzero"/></g><g fill="#38b6ff" fill-opacity="0.4"><g transform="translate(202.86402, 182.113054)"><g><path d="M 11.046875 -18.890625 L 3.203125 -18.890625 L 4.28125 -24.953125 L 26.546875 -24.953125 L 25.484375 -18.890625 L 17.640625 -18.890625 L 14.328125 0 L 7.734375 0 Z M 11.046875 -18.890625 "/></g></g></g><g fill="#38b6ff" fill-opacity="0.4"><g transform="translate(225.849705, 182.113054)"><g><path d="M 12.15625 0.53125 C 10.707031 0.53125 9.390625 0.296875 8.203125 -0.171875 C 7.015625 -0.648438 6 -1.296875 5.15625 -2.109375 C 4.3125 -2.929688 3.65625 -3.882812 3.1875 -4.96875 C 2.726562 -6.050781 2.5 -7.210938 2.5 -8.453125 C 2.5 -9.898438 2.796875 -11.269531 3.390625 -12.5625 C 3.984375 -13.851562 4.785156 -14.976562 5.796875 -15.9375 C 6.804688 -16.90625 7.976562 -17.664062 9.3125 -18.21875 C 10.65625 -18.78125 12.078125 -19.0625 13.578125 -19.0625 C 15.023438 -19.0625 16.34375 -18.820312 17.53125 -18.34375 C 18.71875 -17.875 19.734375 -17.226562 20.578125 -16.40625 C 21.421875 -15.59375 22.070312 -14.644531 22.53125 -13.5625 C 23 -12.476562 23.234375 -11.320312 23.234375 -10.09375 C 23.234375 -8.632812 22.9375 -7.257812 22.34375 -5.96875 C 21.75 -4.675781 20.945312 -3.546875 19.9375 -2.578125 C 18.925781 -1.617188 17.75 -0.859375 16.40625 -0.296875 C 15.070312 0.253906 13.65625 0.53125 12.15625 0.53125 Z M 12.46875 -4.640625 C 13.039062 -4.640625 13.597656 -4.757812 14.140625 -5 C 14.691406 -5.25 15.179688 -5.601562 15.609375 -6.0625 C 16.035156 -6.53125 16.378906 -7.097656 16.640625 -7.765625 C 16.898438 -8.429688 17.03125 -9.179688 17.03125 -10.015625 C 17.03125 -11.203125 16.679688 -12.144531 15.984375 -12.84375 C 15.285156 -13.550781 14.378906 -13.90625 13.265625 -13.90625 C 12.691406 -13.90625 12.128906 -13.78125 11.578125 -13.53125 C 11.035156 -13.28125 10.550781 -12.921875 10.125 -12.453125 C 9.695312 -11.992188 9.351562 -11.429688 9.09375 -10.765625 C 8.832031 -10.097656 8.703125 -9.347656 8.703125 -8.515625 C 8.703125 -7.328125 9.050781 -6.382812 9.75 -5.6875 C 10.445312 -4.988281 11.351562 -4.640625 12.46875 -4.640625 Z M 12.46875 -4.640625 "/></g></g></g><g fill="#38b6ff" fill-opacity="0.4"><g transform="translate(248.300838, 182.113054)"><g><path d="M 14.109375 -5.171875 C 13.804688 -5.023438 13.460938 -4.90625 13.078125 -4.8125 C 12.742188 -4.71875 12.351562 -4.640625 11.90625 -4.578125 C 11.457031 -4.515625 10.945312 -4.484375 10.375 -4.484375 C 7.851562 -4.484375 5.984375 -5.15625 4.765625 -6.5 C 3.554688 -7.84375 3.15625 -9.691406 3.5625 -12.046875 L 4.703125 -18.53125 L 10.796875 -18.53125 L 9.6875 -12.375 C 9.550781 -11.507812 9.703125 -10.832031 10.140625 -10.34375 C 10.578125 -9.863281 11.34375 -9.625 12.4375 -9.625 C 12.84375 -9.625 13.195312 -9.660156 13.5 -9.734375 C 13.8125 -9.804688 14.085938 -9.890625 14.328125 -9.984375 C 14.585938 -10.078125 14.828125 -10.207031 15.046875 -10.375 L 16.46875 -18.53125 L 22.53125 -18.53125 L 19.28125 0 L 13.21875 0 Z M 14.109375 -5.171875 "/></g></g></g><g fill="#38b6ff" fill-opacity="0.4"><g transform="translate(269.326505, 182.113054)"><g><path d="M 5.0625 -18.53125 L 11.125 -18.53125 L 9.9375 -11.9375 L 11.71875 -11.9375 L 17 -18.53125 L 23.59375 -18.53125 L 16.6875 -9.796875 L 20.84375 0 L 14.25 0 L 11.375 -6.765625 L 9.046875 -6.765625 L 7.84375 0 L 1.78125 0 Z M 5.0625 -18.53125 "/></g></g></g><g fill="#38b6ff" fill-opacity="0.4"><g transform="translate(289.995804, 182.113054)"><g><path d="M 9.65625 0.53125 C 8.613281 0.53125 7.65625 0.335938 6.78125 -0.046875 C 5.914062 -0.441406 5.160156 -0.992188 4.515625 -1.703125 C 3.878906 -2.421875 3.382812 -3.285156 3.03125 -4.296875 C 2.675781 -5.304688 2.5 -6.425781 2.5 -7.65625 C 2.5 -9.4375 2.769531 -11.035156 3.3125 -12.453125 C 3.863281 -13.867188 4.570312 -15.0625 5.4375 -16.03125 C 6.300781 -17.007812 7.289062 -17.757812 8.40625 -18.28125 C 9.53125 -18.800781 10.660156 -19.0625 11.796875 -19.0625 C 12.867188 -19.0625 13.765625 -18.890625 14.484375 -18.546875 C 15.210938 -18.203125 15.796875 -17.816406 16.234375 -17.390625 C 16.671875 -16.960938 16.984375 -16.570312 17.171875 -16.21875 C 17.367188 -15.863281 17.46875 -15.6875 17.46875 -15.6875 L 17.828125 -15.6875 L 18.3125 -18.53125 L 24.375 -18.53125 L 21.09375 0 L 15.046875 0 L 15.4375 -2.3125 L 15.140625 -2.3125 C 14.710938 -1.789062 14.21875 -1.316406 13.65625 -0.890625 C 13.175781 -0.535156 12.597656 -0.210938 11.921875 0.078125 C 11.242188 0.378906 10.488281 0.53125 9.65625 0.53125 Z M 12.328125 -4.640625 C 12.898438 -4.640625 13.445312 -4.753906 13.96875 -4.984375 C 14.488281 -5.222656 14.957031 -5.570312 15.375 -6.03125 C 15.789062 -6.5 16.117188 -7.078125 16.359375 -7.765625 C 16.597656 -8.453125 16.71875 -9.257812 16.71875 -10.1875 C 16.71875 -11.40625 16.390625 -12.328125 15.734375 -12.953125 C 15.078125 -13.585938 14.203125 -13.90625 13.109375 -13.90625 C 12.546875 -13.90625 12 -13.785156 11.46875 -13.546875 C 10.945312 -13.304688 10.476562 -12.953125 10.0625 -12.484375 C 9.644531 -12.023438 9.316406 -11.453125 9.078125 -10.765625 C 8.847656 -10.078125 8.734375 -9.269531 8.734375 -8.34375 C 8.734375 -7.125 9.054688 -6.203125 9.703125 -5.578125 C 10.359375 -4.953125 11.234375 -4.640625 12.328125 -4.640625 Z M 12.328125 -4.640625 "/></g></g></g><g fill="#000000" fill-opacity="1"><g transform="translate(202.86402, 182.113054)"><g><path d="M 11.046875 -18.890625 L 3.203125 -18.890625 L 4.28125 -24.953125 L 26.546875 -24.953125 L 25.484375 -18.890625 L 17.640625 -18.890625 L 14.328125 0 L 7.734375 0 Z M 11.046875 -18.890625 "/></g></g></g><g fill="#000000" fill-opacity="1"><g transform="translate(225.849705, 182.113054)"><g><path d="M 12.15625 0.53125 C 10.707031 0.53125 9.390625 0.296875 8.203125 -0.171875 C 7.015625 -0.648438 6 -1.296875 5.15625 -2.109375 C 4.3125 -2.929688 3.65625 -3.882812 3.1875 -4.96875 C 2.726562 -6.050781 2.5 -7.210938 2.5 -8.453125 C 2.5 -9.898438 2.796875 -11.269531 3.390625 -12.5625 C 3.984375 -13.851562 4.785156 -14.976562 5.796875 -15.9375 C 6.804688 -16.90625 7.976562 -17.664062 9.3125 -18.21875 C 10.65625 -18.78125 12.078125 -19.0625 13.578125 -19.0625 C 15.023438 -19.0625 16.34375 -18.820312 17.53125 -18.34375 C 18.71875 -17.875 19.734375 -17.226562 20.578125 -16.40625 C 21.421875 -15.59375 22.070312 -14.644531 22.53125 -13.5625 C 23 -12.476562 23.234375 -11.320312 23.234375 -10.09375 C 23.234375 -8.632812 22.9375 -7.257812 22.34375 -5.96875 C 21.75 -4.675781 20.945312 -3.546875 19.9375 -2.578125 C 18.925781 -1.617188 17.75 -0.859375 16.40625 -0.296875 C 15.070312 0.253906 13.65625 0.53125 12.15625 0.53125 Z M 12.46875 -4.640625 C 13.039062 -4.640625 13.597656 -4.757812 14.140625 -5 C 14.691406 -5.25 15.179688 -5.601562 15.609375 -6.0625 C 16.035156 -6.53125 16.378906 -7.097656 16.640625 -7.765625 C 16.898438 -8.429688 17.03125 -9.179688 17.03125 -10.015625 C 17.03125 -11.203125 16.679688 -12.144531 15.984375 -12.84375 C 15.285156 -13.550781 14.378906 -13.90625 13.265625 -13.90625 C 12.691406 -13.90625 12.128906 -13.78125 11.578125 -13.53125 C 11.035156 -13.28125 10.550781 -12.921875 10.125 -12.453125 C 9.695312 -11.992188 9.351562 -11.429688 9.09375 -10.765625 C 8.832031 -10.097656 8.703125 -9.347656 8.703125 -8.515625 C 8.703125 -7.328125 9.050781 -6.382812 9.75 -5.6875 C 10.445312 -4.988281 11.351562 -4.640625 12.46875 -4.640625 Z M 12.46875 -4.640625 "/></g></g></g><g fill="#000000" fill-opacity="1"><g transform="translate(248.300838, 182.113054)"><g><path d="M 14.109375 -5.171875 C 13.804688 -5.023438 13.460938 -4.90625 13.078125 -4.8125 C 12.742188 -4.71875 12.351562 -4.640625 11.90625 -4.578125 C 11.457031 -4.515625 10.945312 -4.484375 10.375 -4.484375 C 7.851562 -4.484375 5.984375 -5.15625 4.765625 -6.5 C 3.554688 -7.84375 3.15625 -9.691406 3.5625 -12.046875 L 4.703125 -18.53125 L 10.796875 -18.53125 L 9.6875 -12.375 C 9.550781 -11.507812 9.703125 -10.832031 10.140625 -10.34375 C 10.578125 -9.863281 11.34375 -9.625 12.4375 -9.625 C 12.84375 -9.625 13.195312 -9.660156 13.5 -9.734375 C 13.8125 -9.804688 14.085938 -9.890625 14.328125 -9.984375 C 14.585938 -10.078125 14.828125 -10.207031 15.046875 -10.375 L 16.46875 -18.53125 L 22.53125 -18.53125 L 19.28125 0 L 13.21875 0 Z M 14.109375 -5.171875 "/></g></g></g><g fill="#000000" fill-opacity="1"><g transform="translate(269.326505, 182.113054)"><g><path d="M 5.0625 -18.53125 L 11.125 -18.53125 L 9.9375 -11.9375 L 11.71875 -11.9375 L 17 -18.53125 L 23.59375 -18.53125 L 16.6875 -9.796875 L 20.84375 0 L 14.25 0 L 11.375 -6.765625 L 9.046875 -6.765625 L 7.84375 0 L 1.78125 0 Z M 5.0625 -18.53125 "/></g></g></g><g fill="#000000" fill-opacity="1"><g transform="translate(289.995804, 182.113054)"><g><path d="M 9.65625 0.53125 C 8.613281 0.53125 7.65625 0.335938 6.78125 -0.046875 C 5.914062 -0.441406 5.160156 -0.992188 4.515625 -1.703125 C 3.878906 -2.421875 3.382812 -3.285156 3.03125 -4.296875 C 2.675781 -5.304688 2.5 -6.425781 2.5 -7.65625 C 2.5 -9.4375 2.769531 -11.035156 3.3125 -12.453125 C 3.863281 -13.867188 4.570312 -15.0625 5.4375 -16.03125 C 6.300781 -17.007812 7.289062 -17.757812 8.40625 -18.28125 C 9.53125 -18.800781 10.660156 -19.0625 11.796875 -19.0625 C 12.867188 -19.0625 13.765625 -18.890625 14.484375 -18.546875 C 15.210938 -18.203125 15.796875 -17.816406 16.234375 -17.390625 C 16.671875 -16.960938 16.984375 -16.570312 17.171875 -16.21875 C 17.367188 -15.863281 17.46875 -15.6875 17.46875 -15.6875 L 17.828125 -15.6875 L 18.3125 -18.53125 L 24.375 -18.53125 L 21.09375 0 L 15.046875 0 L 15.4375 -2.3125 L 15.140625 -2.3125 C 14.710938 -1.789062 14.21875 -1.316406 13.65625 -0.890625 C 13.175781 -0.535156 12.597656 -0.210938 11.921875 0.078125 C 11.242188 0.378906 10.488281 0.53125 9.65625 0.53125 Z M 12.328125 -4.640625 C 12.898438 -4.640625 13.445312 -4.753906 13.96875 -4.984375 C 14.488281 -5.222656 14.957031 -5.570312 15.375 -6.03125 C 15.789062 -6.5 16.117188 -7.078125 16.359375 -7.765625 C 16.597656 -8.453125 16.71875 -9.257812 16.71875 -10.1875 C 16.71875 -11.40625 16.390625 -12.328125 15.734375 -12.953125 C 15.078125 -13.585938 14.203125 -13.90625 13.109375 -13.90625 C 12.546875 -13.90625 12 -13.785156 11.46875 -13.546875 C 10.945312 -13.304688 10.476562 -12.953125 10.0625 -12.484375 C 9.644531 -12.023438 9.316406 -11.453125 9.078125 -10.765625 C 8.847656 -10.078125 8.734375 -9.269531 8.734375 -8.34375 C 8.734375 -7.125 9.054688 -6.203125 9.703125 -5.578125 C 10.359375 -4.953125 11.234375 -4.640625 12.328125 -4.640625 Z M 12.328125 -4.640625 "/></g></g></g><g fill="#000000" fill-opacity="1"><g transform="translate(178.893362, 217.452348)"><g><path d="M 11.6875 0.734375 C 10.507812 0.734375 9.457031 0.613281 8.53125 0.375 C 7.613281 0.144531 6.796875 -0.15625 6.078125 -0.53125 C 5.359375 -0.90625 4.726562 -1.328125 4.1875 -1.796875 C 3.65625 -2.273438 3.195312 -2.769531 2.8125 -3.28125 C 1.90625 -4.445312 1.269531 -5.785156 0.90625 -7.296875 L 4.203125 -7.296875 C 4.515625 -6.367188 4.988281 -5.539062 5.625 -4.8125 C 6.175781 -4.1875 6.929688 -3.625 7.890625 -3.125 C 8.859375 -2.625 10.125 -2.375 11.6875 -2.375 C 13.875 -2.375 15.484375 -2.8125 16.515625 -3.6875 C 17.546875 -4.5625 18.0625 -5.644531 18.0625 -6.9375 C 18.0625 -7.570312 17.929688 -8.164062 17.671875 -8.71875 C 17.421875 -9.28125 17.035156 -9.765625 16.515625 -10.171875 C 15.992188 -10.585938 15.332031 -10.910156 14.53125 -11.140625 C 13.726562 -11.378906 12.78125 -11.5 11.6875 -11.5 L 8.390625 -11.5 L 8.390625 -14.59375 L 11.6875 -14.59375 C 12.582031 -14.59375 13.378906 -14.707031 14.078125 -14.9375 C 14.785156 -15.175781 15.378906 -15.492188 15.859375 -15.890625 C 16.335938 -16.296875 16.703125 -16.765625 16.953125 -17.296875 C 17.210938 -17.835938 17.34375 -18.398438 17.34375 -18.984375 C 17.34375 -19.515625 17.21875 -20.035156 16.96875 -20.546875 C 16.726562 -21.054688 16.363281 -21.503906 15.875 -21.890625 C 15.382812 -22.285156 14.785156 -22.597656 14.078125 -22.828125 C 13.378906 -23.054688 12.582031 -23.171875 11.6875 -23.171875 C 10.289062 -23.171875 9.15625 -22.945312 8.28125 -22.5 C 7.40625 -22.050781 6.722656 -21.546875 6.234375 -20.984375 C 5.628906 -20.347656 5.191406 -19.617188 4.921875 -18.796875 L 1.640625 -18.796875 C 2.023438 -20.179688 2.644531 -21.421875 3.5 -22.515625 C 3.863281 -22.984375 4.296875 -23.441406 4.796875 -23.890625 C 5.296875 -24.335938 5.878906 -24.738281 6.546875 -25.09375 C 7.222656 -25.445312 7.984375 -25.734375 8.828125 -25.953125 C 9.679688 -26.171875 10.632812 -26.28125 11.6875 -26.28125 C 13.09375 -26.28125 14.347656 -26.082031 15.453125 -25.6875 C 16.566406 -25.300781 17.503906 -24.78125 18.265625 -24.125 C 19.035156 -23.46875 19.617188 -22.691406 20.015625 -21.796875 C 20.421875 -20.910156 20.625 -19.972656 20.625 -18.984375 C 20.625 -17.890625 20.410156 -16.972656 19.984375 -16.234375 C 19.554688 -15.503906 19.097656 -14.921875 18.609375 -14.484375 C 18.003906 -13.972656 17.335938 -13.585938 16.609375 -13.328125 L 16.609375 -13.140625 C 17.484375 -12.867188 18.273438 -12.46875 18.984375 -11.9375 C 19.566406 -11.46875 20.109375 -10.835938 20.609375 -10.046875 C 21.109375 -9.265625 21.359375 -8.226562 21.359375 -6.9375 C 21.359375 -5.882812 21.144531 -4.890625 20.71875 -3.953125 C 20.289062 -3.023438 19.660156 -2.210938 18.828125 -1.515625 C 18.003906 -0.816406 16.992188 -0.269531 15.796875 0.125 C 14.609375 0.53125 13.238281 0.734375 11.6875 0.734375 Z M 11.6875 0.734375 "/></g></g></g><g fill="#000000" fill-opacity="1"><g transform="translate(202.065884, 217.452348)"><g><path d="M 10.21875 0.359375 C 9.03125 0.359375 7.90625 0.125 6.84375 -0.34375 C 5.78125 -0.820312 4.847656 -1.476562 4.046875 -2.3125 C 3.242188 -3.15625 2.609375 -4.160156 2.140625 -5.328125 C 1.679688 -6.492188 1.453125 -7.757812 1.453125 -9.125 C 1.453125 -10.488281 1.679688 -11.753906 2.140625 -12.921875 C 2.609375 -14.085938 3.242188 -15.085938 4.046875 -15.921875 C 4.847656 -16.765625 5.78125 -17.421875 6.84375 -17.890625 C 7.90625 -18.367188 9.03125 -18.609375 10.21875 -18.609375 C 11.414062 -18.609375 12.425781 -18.4375 13.25 -18.09375 C 14.070312 -17.757812 14.742188 -17.382812 15.265625 -16.96875 C 15.796875 -16.5625 16.175781 -16.179688 16.40625 -15.828125 C 16.632812 -15.472656 16.75 -15.296875 16.75 -15.296875 L 16.796875 -15.296875 L 16.796875 -18.25 L 19.703125 -18.25 L 19.703125 0 L 16.796875 0 L 16.796875 -2.921875 L 16.75 -2.921875 C 16.75 -2.921875 16.632812 -2.742188 16.40625 -2.390625 C 16.175781 -2.035156 15.796875 -1.65625 15.265625 -1.25 C 14.742188 -0.851562 14.070312 -0.484375 13.25 -0.140625 C 12.425781 0.191406 11.414062 0.359375 10.21875 0.359375 Z M 10.578125 -2.375 C 11.460938 -2.375 12.28125 -2.535156 13.03125 -2.859375 C 13.78125 -3.191406 14.4375 -3.65625 15 -4.25 C 15.5625 -4.84375 16 -5.550781 16.3125 -6.375 C 16.632812 -7.207031 16.796875 -8.125 16.796875 -9.125 C 16.796875 -10.125 16.632812 -11.035156 16.3125 -11.859375 C 16 -12.691406 15.5625 -13.40625 15 -14 C 14.4375 -14.59375 13.78125 -15.050781 13.03125 -15.375 C 12.28125 -15.707031 11.460938 -15.875 10.578125 -15.875 C 9.703125 -15.875 8.890625 -15.707031 8.140625 -15.375 C 7.390625 -15.050781 6.734375 -14.59375 6.171875 -14 C 5.609375 -13.40625 5.164062 -12.691406 4.84375 -11.859375 C 4.53125 -11.035156 4.375 -10.125 4.375 -9.125 C 4.375 -8.125 4.53125 -7.207031 4.84375 -6.375 C 5.164062 -5.550781 5.609375 -4.84375 6.171875 -4.25 C 6.734375 -3.65625 7.390625 -3.191406 8.140625 -2.859375 C 8.890625 -2.535156 9.703125 -2.375 10.578125 -2.375 Z M 10.578125 -2.375 "/></g></g></g><g fill="#000000" fill-opacity="1"><g transform="translate(224.326106, 217.452348)"><g><path d="M 2.5625 -18.25 L 5.46875 -18.25 L 5.46875 -10.953125 L 9.125 -10.953125 L 14.96875 -18.25 L 18.4375 -18.25 L 11.6875 -9.671875 L 18.984375 0 L 15.328125 0 L 9.125 -8.21875 L 5.46875 -8.21875 L 5.46875 0 L 2.5625 0 Z M 2.5625 -18.25 "/></g></g></g><g fill="#000000" fill-opacity="1"><g transform="translate(243.484499, 217.452348)"><g><path d="M 9.859375 0 L 5.65625 0 L 0.734375 -18.25 L 3.828125 -18.25 L 7.84375 -2.734375 L 10.578125 -2.734375 L 15.328125 -18.25 L 18.4375 -18.25 L 10.765625 6.9375 L 7.671875 6.9375 Z M 9.859375 0 "/></g></g></g><g fill="#000000" fill-opacity="1"><g transform="translate(261.913045, 217.452348)"><g><path d="M 2.5625 -18.25 L 18.4375 -18.25 L 18.4375 0 L 15.515625 0 L 15.515625 -15.515625 L 5.46875 -15.515625 L 5.46875 0 L 2.5625 0 Z M 2.5625 -18.25 "/></g></g></g><g fill="#000000" fill-opacity="1"><g transform="translate(282.896037, 217.452348)"><g><path d="M 10.21875 0.359375 C 9.03125 0.359375 7.90625 0.125 6.84375 -0.34375 C 5.78125 -0.820312 4.847656 -1.476562 4.046875 -2.3125 C 3.242188 -3.15625 2.609375 -4.160156 2.140625 -5.328125 C 1.679688 -6.492188 1.453125 -7.757812 1.453125 -9.125 C 1.453125 -10.488281 1.679688 -11.753906 2.140625 -12.921875 C 2.609375 -14.085938 3.242188 -15.085938 4.046875 -15.921875 C 4.847656 -16.765625 5.78125 -17.421875 6.84375 -17.890625 C 7.90625 -18.367188 9.03125 -18.609375 10.21875 -18.609375 C 11.414062 -18.609375 12.425781 -18.4375 13.25 -18.09375 C 14.070312 -17.757812 14.742188 -17.382812 15.265625 -16.96875 C 15.796875 -16.5625 16.175781 -16.179688 16.40625 -15.828125 C 16.632812 -15.472656 16.75 -15.296875 16.75 -15.296875 L 16.796875 -15.296875 L 16.796875 -18.25 L 19.703125 -18.25 L 19.703125 0 L 16.796875 0 L 16.796875 -2.921875 L 16.75 -2.921875 C 16.75 -2.921875 16.632812 -2.742188 16.40625 -2.390625 C 16.175781 -2.035156 15.796875 -1.65625 15.265625 -1.25 C 14.742188 -0.851562 14.070312 -0.484375 13.25 -0.140625 C 12.425781 0.191406 11.414062 0.359375 10.21875 0.359375 Z M 10.578125 -2.375 C 11.460938 -2.375 12.28125 -2.535156 13.03125 -2.859375 C 13.78125 -3.191406 14.4375 -3.65625 15 -4.25 C 15.5625 -4.84375 16 -5.550781 16.3125 -6.375 C 16.632812 -7.207031 16.796875 -8.125 16.796875 -9.125 C 16.796875 -10.125 16.632812 -11.035156 16.3125 -11.859375 C 16 -12.691406 15.5625 -13.40625 15 -14 C 14.4375 -14.59375 13.78125 -15.050781 13.03125 -15.375 C 12.28125 -15.707031 11.460938 -15.875 10.578125 -15.875 C 9.703125 -15.875 8.890625 -15.707031 8.140625 -15.375 C 7.390625 -15.050781 6.734375 -14.59375 6.171875 -14 C 5.609375 -13.40625 5.164062 -12.691406 4.84375 -11.859375 C 4.53125 -11.035156 4.375 -10.125 4.375 -9.125 C 4.375 -8.125 4.53125 -7.207031 4.84375 -6.375 C 5.164062 -5.550781 5.609375 -4.84375 6.171875 -4.25 C 6.734375 -3.65625 7.390625 -3.191406 8.140625 -2.859375 C 8.890625 -2.535156 9.703125 -2.375 10.578125 -2.375 Z M 10.578125 -2.375 "/></g></g></g></svg>